<svg id="Flat" height="512" viewBox="0 0 512 512" width="512" xmlns="http://www.w3.org/2000/svg"><path d="m454.667 189.807a40 40 0 0 0 -48.879-28.474l-85.929 22.667h-13.259a88 88 0 1 0 -101.2 0h-13.259l-85.929-22.667a40 40 0 0 0 -48.879 28.474 40 40 0 0 0 28.474 48.88l58.355 15.393a32 32 0 0 1 23.838 30.942v37.7a60 60 0 0 1 -5.6 25.309l-38.374 82.483a40 40 0 0 0 71.964 34.946l35.529-59.472a28.766 28.766 0 0 1 19.658-13.783 28.206 28.206 0 0 1 29.028 13.324l35.8 59.931a40 40 0 1 0 71.964-34.946l-38.369-82.479a60 60 0 0 1 -5.6-25.309v-37.7a32 32 0 0 1 23.838-30.942l58.355-15.393a40 40 0 0 0 28.474-48.884z" fill="#ad6643"/><circle cx="256" cy="264" fill="#35a872" r="16"/><circle cx="256" cy="328" fill="#eb423f" r="16"/><g fill="#5e3725"><circle cx="224" cy="104" r="8"/><circle cx="288" cy="104" r="8"/><path d="m295.155 139.578h-.006a7.993 7.993 0 1 0 -14.3-7.15h-.006l.053-.1c-.257.478-6.51 11.683-24.9 11.683s-24.641-11.205-24.9-11.683l.053.1h-.006a7.993 7.993 0 1 0 -14.3 7.15h-.006c.016.033.053.1.1.191l.044.081c1.342 2.476 11.829 20.15 39.019 20.15s37.677-17.674 39.012-20.15l.044-.081c.044-.088.083-.158.099-.191z"/></g><g fill="#fbe9d8"><path d="m312 200a16 16 0 0 1 -16 16c-8.837 0-40-7.163-40-16s31.163-16 40-16a16 16 0 0 1 16 16z"/><path d="m200 200a16 16 0 0 0 16 16c8.837 0 40-7.163 40-16s-31.163-16-40-16a16 16 0 0 0 -16 16z"/><path d="m374.17 400.86-4.05 2.53c-1.46.91-1.68 1.49-2.5 4.04-1.1 3.46-2.77 8.69-9.26 12.75s-11.92 3.26-15.52 2.74c-2.65-.39-3.26-.44-4.72.47s-1.69 1.49-2.5 4.04c-1.1 3.46-2.77 8.69-9.26 12.75s-11.92 3.26-15.51 2.74c-2.66-.39-3.27-.44-4.73.47l-2.4 1.5-8.21-13.74 2.13-1.33c6.49-4.05 11.92-3.26 15.51-2.74 2.66.39 3.27.44 4.73-.47s1.68-1.49 2.5-4.04c1.1-3.46 2.77-8.69 9.26-12.74s11.92-3.27 15.51-2.75c2.66.39 3.27.44 4.73-.47s1.68-1.49 2.5-4.04c1.1-3.46 2.77-8.69 9.26-12.75l5.73-3.58z"/><path d="m397.53 241.09c-.95 2.5-1.13 3.09-.56 4.71l.19.55-15.5 4.09c-2.19-6.85-.34-11.75.91-15.03.96-2.51 1.14-3.1.56-4.72s-1.08-1.96-3.4-3.31c-3.14-1.83-7.88-4.59-10.44-11.8s-.61-12.34.68-15.74c.95-2.51 1.14-3.09.56-4.72s-1.08-1.96-3.4-3.31c-3.14-1.83-7.89-4.59-10.44-11.8l-1.85-5.24 15.52-4.09 1.41 3.98c.58 1.63 1.09 1.97 3.4 3.32 3.14 1.83 7.89 4.59 10.44 11.8s.61 12.34-.68 15.74c-.95 2.51-1.13 3.09-.56 4.72s1.09 1.96 3.41 3.31c3.14 1.83 7.88 4.59 10.43 11.8s.61 12.34-.68 15.74z"/><path d="m149.01 197.79c-2.56 7.22-7.3 9.98-10.44 11.8-2.32 1.35-2.83 1.7-3.4 3.32s-.4 2.21.56 4.71c1.29 3.4 3.23 8.53.68 15.74s-7.3 9.98-10.44 11.8c-2.28 1.33-2.81 1.68-3.37 3.23l-15.53-4.09.42-1.17c2.55-7.21 7.3-9.97 10.43-11.8 2.32-1.34 2.83-1.69 3.41-3.31s.39-2.21-.56-4.72c-1.29-3.39-3.24-8.52-.68-15.73s7.3-9.98 10.43-11.8c2.32-1.35 2.83-1.7 3.41-3.32s.39-2.21-.56-4.72c-1.29-3.39-3.24-8.52-.68-15.74l1.19-3.36 15.52 4.09-1.63 4.61c-.57 1.63-.39 2.22.56 4.72 1.29 3.4 3.24 8.53.68 15.74z"/><path d="m212.38 438.02-8.21 13.74-2.53-1.58c-6.49-4.06-8.16-9.29-9.26-12.75-.82-2.55-1.04-3.12-2.5-4.04s-2.07-.86-4.72-.47c-3.6.52-9.03 1.31-15.52-2.74s-8.16-9.29-9.26-12.75c-.82-2.55-1.04-3.12-2.5-4.04s-2.07-.86-4.73-.47c-3.59.52-9.02 1.31-15.51-2.74l-3.21-2.01 6.8-14.62 4.89 3.06c1.46.91 2.07.86 4.73.47 3.59-.52 9.02-1.31 15.51 2.74s8.16 9.29 9.26 12.75c.82 2.55 1.04 3.13 2.5 4.04s2.07.86 4.73.47c3.59-.52 9.02-1.31 15.51 2.75s8.16 9.28 9.26 12.74c.82 2.55 1.04 3.13 2.5 4.04z"/></g></svg>